<?xml version="1.0" encoding="utf-8"?>
<!-- Generator: Adobe Illustrator 24.0.1, SVG Export Plug-In . SVG Version: 6.00 Build 0)  -->
<svg version="1.1" id="Livello_1" xmlns="http://www.w3.org/2000/svg" xmlns:xlink="http://www.w3.org/1999/xlink" x="0px" y="0px"
	 viewBox="0 0 512 512" style="enable-background:new 0 0 512 512;" xml:space="preserve">
<style type="text/css">
	.st0{fill:#FFFFFF;}
	.st1{fill:none;stroke:#000000;stroke-miterlimit:10;}
</style>
<g>
	<g id="XMLID_1_">
		<g>
			<path class="st0" d="M504,256c0,123.8-90.7,226.4-209.3,245V327.7h57.8l11-71.7h-68.8v-46.6c0-19.6,9.6-38.7,40.4-38.7h31.3v-61
				c0,0-28.4-4.8-55.5-4.8c-56.7,0-93.7,34.4-93.7,96.5V256h-63v71.7h63V501C98.7,482.4,8,379.8,8,256C8,119,119,8,256,8
				S504,119,504,256z"/>
		</g>
		<g>
			<path class="st1" d="M504,256C504,119,393,8,256,8S8,119,8,256c0,123.8,90.7,226.4,209.2,245V327.7h-63V256h63v-54.6
				c0-62.1,37-96.5,93.7-96.5c27.1,0,55.5,4.8,55.5,4.8v61h-31.3c-30.8,0-40.4,19.1-40.4,38.7V256h68.8l-11,71.7h-57.8V501
				C413.3,482.4,504,379.8,504,256z"/>
		</g>
	</g>
</g>
</svg>
