<?xml version="1.0" encoding="utf-8"?>
<!-- Generator: Adobe Illustrator 24.0.1, SVG Export Plug-In . SVG Version: 6.00 Build 0)  -->
<svg version="1.1" id="Livello_1" xmlns="http://www.w3.org/2000/svg" xmlns:xlink="http://www.w3.org/1999/xlink" x="0px" y="0px"
	 viewBox="0 0 448 512" style="enable-background:new 0 0 448 512;" xml:space="preserve">
<style type="text/css">
	.st0{fill:#FFFFFF;}
</style>
<g id="XMLID_1_">
	<g>
		<path class="st0" d="M446.6,163.5c2.1,37,2.1,147.8,0,184.8c-1.8,35.9-10,67.7-36.2,93.9c-26.2,26.3-58,34.5-93.9,36.2
			c-37,2.1-147.9,2.1-184.9,0c-35.9-1.8-67.6-10-93.9-36.2c-26.3-26.2-34.5-58-36.2-93.9c-2.1-37-2.1-147.9,0-184.9
			c1.8-35.9,9.9-67.7,36.2-93.9s58.1-34.4,93.9-36.1c37-2.1,147.9-2.1,184.9,0c35.9,1.8,67.7,10,93.9,36.2
			C436.7,95.8,444.9,127.6,446.6,163.5z M407.8,255.9c0-32.6,2.7-102.6-9-132.1c-7.9-19.7-23-34.8-42.6-42.6
			c-29.4-11.6-99.5-9-132.1-9s-102.6-2.7-132.1,9c-19.7,7.9-34.8,23-42.6,42.6c-11.6,29.4-9,99.5-9,132.1s-2.7,102.6,9,132.1
			c7.9,19.7,23,34.8,42.6,42.6c29.4,11.6,99.5,9,132.1,9s102.6,2.7,132.1-9c19.7-7.9,34.8-23,42.6-42.6
			C410.5,358.6,407.8,288.5,407.8,255.9z"/>
		<circle class="st0" cx="343.7" cy="136.3" r="26.8"/>
		<path class="st0" d="M224.1,141c63.6,0,114.9,51.3,114.9,114.9s-51.3,114.9-114.9,114.9s-114.9-51.3-114.9-114.9
			S160.5,141,224.1,141z M298.8,255.9c0-41.2-33.5-74.7-74.7-74.7s-74.7,33.5-74.7,74.7s33.6,74.7,74.7,74.7
			S298.8,297.1,298.8,255.9z"/>
	</g>
	<g>
	</g>
</g>
</svg>
