<?xml version="1.0" encoding="utf-8"?>
<!-- Generator: Adobe Illustrator 24.0.1, SVG Export Plug-In . SVG Version: 6.00 Build 0)  -->
<svg version="1.1" id="Livello_1" xmlns="http://www.w3.org/2000/svg" xmlns:xlink="http://www.w3.org/1999/xlink" x="0px" y="0px"
	 viewBox="0 0 512 512" style="enable-background:new 0 0 512 512;" xml:space="preserve">
<style type="text/css">
	.st0{fill:#FFFFFF;}
	.st1{fill:none;stroke:#000000;stroke-miterlimit:10;}
</style>
<g id="XMLID_1_">
	<g>
		<path class="st0" d="M512,97.5c-14.3,20.8-32.2,39.3-52.6,54.3c0.3,4.5,0.3,9.1,0.3,13.6c0,138.7-105.6,298.6-298.6,298.6
			c-59.5,0-114.7-17.2-161.1-47.1c8.4,1,16.6,1.3,25.3,1.3c49.1,0,94.2-16.6,130.3-44.8c-46.1-1-84.8-31.2-98.1-72.8
			c6.5,1,13,1.6,19.8,1.6c9.4,0,18.8-1.3,27.6-3.6c-48.1-9.8-84.1-52-84.1-103v-1.3c14,7.8,30.2,12.7,47.4,13.3
			c-28.3-18.8-46.8-51-46.8-87.4c0-19.5,5.2-37.4,14.3-52.9C87.4,130.9,165,172.5,252.1,177.1c-1.6-7.8-2.6-15.9-2.6-24
			c0-57.8,46.8-104.9,104.9-104.9c30.2,0,57.5,12.7,76.7,33.1c23.7-4.6,46.5-13.3,66.6-25.3c-7.8,24.4-24.4,44.8-46.1,57.8
			C472.7,111.4,493.2,105.6,512,97.5z"/>
	</g>
	<g>
		<path class="st1" d="M459.4,151.7c0.3,4.5,0.3,9.1,0.3,13.6c0,138.7-105.6,298.6-298.6,298.6c-59.5,0-114.7-17.2-161.1-47.1
			c8.4,1,16.6,1.3,25.3,1.3c49.1,0,94.2-16.6,130.3-44.8c-46.1-1-84.8-31.2-98.1-72.8c6.5,1,13,1.6,19.8,1.6
			c9.4,0,18.8-1.3,27.6-3.6c-48.1-9.8-84.1-52-84.1-103v-1.3c14,7.8,30.2,12.7,47.4,13.3c-28.3-18.8-46.8-51-46.8-87.4
			c0-19.5,5.2-37.4,14.3-52.9C87.4,130.9,165,172.5,252.1,177.1c-1.6-7.8-2.6-15.9-2.6-24c0-57.8,46.8-104.9,104.9-104.9
			c30.2,0,57.5,12.7,76.7,33.1c23.7-4.6,46.5-13.3,66.6-25.3c-7.8,24.4-24.4,44.8-46.1,57.8c21.1-2.3,41.6-8.1,60.4-16.2
			C497.7,118.2,479.8,136.8,459.4,151.7z"/>
	</g>
</g>
</svg>
