<?xml version="1.0" encoding="utf-8"?>
<!-- Generator: Adobe Illustrator 24.0.1, SVG Export Plug-In . SVG Version: 6.00 Build 0)  -->
<svg version="1.1" id="Livello_1" xmlns="http://www.w3.org/2000/svg" xmlns:xlink="http://www.w3.org/1999/xlink" x="0px" y="0px"
	 viewBox="0 0 1440 100" style="enable-background:new 0 0 1440 100;" xml:space="preserve">
<style type="text/css">
	.st0{fill:#F6F6F6;}
	.st1{fill:none;stroke:#FFFFFF;stroke-miterlimit:10;}
</style>
<g id="XMLID_1_">
	<g>
		<g id="XMLID_2_">
			<g>
				<path class="st0" d="M447.8,35.1C603.7,68.8,671,58.7,826.3,25.5c155.4-33.1,273.4-23.7,563.4,12
					c290.2,35.7,349.8-54.2,530.3-35.7V150H0V1.8C137.3,1.8,293.3,1.8,447.8,35.1z"/>
			</g>
			<g>
				<path class="st1" d="M1920,1.8V150H0V1.8c137.3,0,293.3,0,447.8,33.3C603.7,68.8,671,58.7,826.3,25.5
					c155.4-33.1,273.4-23.7,563.4,12C1679.9,73.2,1739.5-16.7,1920,1.8z"/>
			</g>
		</g>
	</g>
</g>
</svg>
